<?xml version="1.0" encoding="UTF-8" standalone="no"?>
<!-- Svg Vector Icons : http://www.onlinewebfonts.com/icon -->

<svg
   xmlns:dc="http://purl.org/dc/elements/1.1/"
   xmlns:cc="http://creativecommons.org/ns#"
   xmlns:rdf="http://www.w3.org/1999/02/22-rdf-syntax-ns#"
   xmlns:svg="http://www.w3.org/2000/svg"
   xmlns="http://www.w3.org/2000/svg"
   xmlns:sodipodi="http://sodipodi.sourceforge.net/DTD/sodipodi-0.dtd"
   xmlns:inkscape="http://www.inkscape.org/namespaces/inkscape"
   version="1.1"
   x="0px"
   y="0px"
   viewBox="0 0 1000 1000"
   enable-background="new 0 0 1000 1000"
   xml:space="preserve"
   id="svg4137"
   sodipodi:docname="notebook.svg"
   inkscape:version="0.92.4 (f8dce91, 2019-08-02)"><defs
   id="defs4141" /><sodipodi:namedview
   pagecolor="#ffffff"
   bordercolor="#666666"
   borderopacity="1"
   objecttolerance="10"
   gridtolerance="10"
   guidetolerance="10"
   inkscape:pageopacity="0"
   inkscape:pageshadow="2"
   inkscape:window-width="1366"
   inkscape:window-height="713"
   id="namedview4139"
   showgrid="false"
   inkscape:zoom="0.532"
   inkscape:cx="195.48872"
   inkscape:cy="500"
   inkscape:window-x="0"
   inkscape:window-y="27"
   inkscape:window-maximized="1"
   inkscape:current-layer="g4135" />
<metadata
   id="metadata3955"> Svg Vector Icons : http://www.onlinewebfonts.com/icon <rdf:RDF><cc:Work
     rdf:about=""><dc:format>image/svg+xml</dc:format><dc:type
       rdf:resource="http://purl.org/dc/dcmitype/StillImage" /><dc:title></dc:title></cc:Work></rdf:RDF></metadata>
<g
   id="g4135"><g
     transform="translate(0.000000,511.000000) scale(0.100000,-0.100000)"
     id="g4133"
     style="fill:#7fd1f5;fill-opacity:1"><path
       d="M1383.2,3919.1l-64.1-56.3l-5.8-2280.4c-3.9-1684.1,1.9-2292.1,17.5-2332.8c13.6-29.1,44.7-71.9,71.9-91.3c46.6-38.8,97.1-38.8,3597.4-38.8h3548.8l50.5,40.8c29.1,21.4,60.2,71.9,71.9,110.7c15.5,50.5,19.4,767.3,15.5,2330.9l-5.8,2261l-64.1,56.3l-62.2,56.3H5000H1445.4L1383.2,3919.1z M8399.2,1673.6V-220.2H5000H1600.8v1893.9v1893.9H5000h3399.2V1673.6z"
       id="path3957"
       style="fill:#7fd1f5;fill-opacity:1" /><path
       d="M703.4-2265.6C13.8-3648.6,42.9-3567,175-3691.3l68-64.1h4757h4757l68,64.1c132.1,124.3,161.2,42.7-528.3,1425.7l-625.5,1249H5000H1328.8L703.4-2265.6z M8725.6-1828.5c172.9-363.2,318.6-672.1,326.3-689.6c11.7-31.1-279.7-33-4049.9-33c-2233.8,0-4061.6,5.8-4061.6,11.6c0,5.8,145.7,316.6,324.4,689.6l322.4,677.9H5000h3410.9L8725.6-1828.5z M5990.6-2663.8c0-7.8,31.1-190.4,68-406c36.9-215.6,68-409.8,68-433.2c0-38.8-5.8-38.8-1126.6-38.8H3873.4v44.7c0,23.3,31.1,217.6,68,431.2c36.9,213.7,68,394.3,68,404c0,7.8,446.8,13.6,990.6,13.6C5545.8-2648.2,5990.6-2654.1,5990.6-2663.8z"
       id="path3959"
       style="fill:#7fd1f5;fill-opacity:1" /><path
       d="M1651.3-1261.3c-23.3-62.2-9.7-68,136-62.2c130.1,5.8,153.5,11.7,178.7,50.5l27.2,42.7H1828C1695.9-1230.3,1661-1236.1,1651.3-1261.3z"
       id="path3961"
       style="fill:#7fd1f5;fill-opacity:1" /><path
       d="M2049.5-1267.2c-11.7-19.4-13.6-40.8-7.8-48.6c5.8-5.8,75.8-11.7,153.4-11.7c120.4,0,145.7,5.8,163.2,36.9c9.7,21.4,19.4,42.7,19.4,48.6c0,5.8-69.9,11.6-155.4,11.6C2092.2-1230.3,2065-1236.1,2049.5-1267.2z"
       id="path3963"
       style="fill:#7fd1f5;fill-opacity:1" /><path
       d="M2447.7-1261.3c-23.3-62.2-9.7-68,145.7-62.2c143.7,5.8,161.2,9.7,174.8,50.5c15.5,42.7,13.6,42.7-145.7,42.7C2492.3-1230.3,2457.4-1236.1,2447.7-1261.3z"
       id="path3965"
       style="fill:#7fd1f5;fill-opacity:1" /><path
       d="M2857.5-1243.9c-7.8-5.8-13.6-29.1-13.6-48.6c0-31.1,17.5-35,141.8-35c139.9,0,188.4,19.4,188.4,71.9c0,19.4-40.8,25.3-151.5,25.3C2939.1-1230.3,2863.3-1236.1,2857.5-1243.9z"
       id="path3967"
       style="fill:#7fd1f5;fill-opacity:1" /><path
       d="M3244-1263.3c-21.4-52.4,13.6-66,163.2-60.2c126.3,5.8,143.7,9.7,157.3,50.5c15.5,42.7,13.6,42.7-145.7,42.7C3284.8-1230.3,3253.8-1236.1,3244-1263.3z"
       id="path3969"
       style="fill:#7fd1f5;fill-opacity:1" /><path
       d="M3640.3-1278.8c0-50.5,0-50.5,161.2-44.7c147.6,5.8,159.3,9.7,165.1,50.5c5.8,40.8,1.9,42.7-159.3,42.7C3642.2-1230.3,3640.3-1230.3,3640.3-1278.8z"
       id="path3971"
       style="fill:#7fd1f5;fill-opacity:1" /><path
       d="M4042.4-1271.1c-13.6-52.5,11.6-60.2,172.9-52.5c122.4,5.8,134,9.7,139.8,50.5c5.8,40.8,1.9,42.7-147.6,42.7C4067.6-1230.3,4052.1-1234.2,4042.4-1271.1z"
       id="path3973"
       style="fill:#7fd1f5;fill-opacity:1" /><path
       d="M4440.6-1273c5.8-42.7,15.5-44.7,161.2-44.7c145.7,0,155.4,1.9,161.2,44.7c5.8,40.8,1.9,42.7-161.2,42.7C4438.6-1230.3,4434.7-1232.2,4440.6-1273z"
       id="path3975"
       style="fill:#7fd1f5;fill-opacity:1" /><path
       d="M4844.6-1278.8c0-48.6,1.9-48.6,155.4-48.6c153.4,0,155.4,0,155.4,48.6c0,48.6-2,48.6-155.4,48.6C4846.5-1230.3,4844.6-1230.3,4844.6-1278.8z"
       id="path3977"
       style="fill:#7fd1f5;fill-opacity:1" /><path
       d="M5237-1273c5.8-40.8,17.5-44.7,167-50.5c159.3-5.8,159.3-5.8,159.3,44.7c0,48.6-2,48.6-167.1,48.6C5235-1230.3,5231.1-1232.2,5237-1273z"
       id="path3979"
       style="fill:#7fd1f5;fill-opacity:1" /><path
       d="M5644.9-1273c5.8-40.8,17.5-44.7,149.6-50.5c151.5-5.8,186.5,7.8,165.1,60.2c-9.7,27.2-40.8,33-167,33C5642.9-1230.3,5639-1232.2,5644.9-1273z"
       id="path3981"
       style="fill:#7fd1f5;fill-opacity:1" /><path
       d="M6029.5-1247.8c0-68,25.2-79.6,176.7-79.6c151.5,0,153.5,0,153.5,48.6c0,48.6-1.9,48.6-165.1,48.6C6103.3-1230.3,6029.5-1238,6029.5-1247.8z"
       id="path3983"
       style="fill:#7fd1f5;fill-opacity:1" /><path
       d="M6441.3-1273c5.8-40.8,17.5-44.7,167-50.5c157.3-5.8,170.9,0,147.6,62.2c-9.7,25.3-42.7,31.1-167.1,31.1C6439.3-1230.3,6435.4-1232.2,6441.3-1273z"
       id="path3985"
       style="fill:#7fd1f5;fill-opacity:1" /><path
       d="M6825.9-1241.9c0-5.8,9.7-27.2,19.4-48.6c17.5-31.1,42.7-36.9,163.2-36.9c77.7,0,145.7,5.8,151.5,11.7c5.8,5.8,7.8,27.2,1.9,48.6c-9.7,33-29.1,36.9-172.9,36.9C6899.7-1230.3,6825.9-1236.1,6825.9-1241.9z"
       id="path3987"
       style="fill:#7fd1f5;fill-opacity:1" /><path
       d="M7231.8-1273c13.6-40.8,31.1-44.7,174.8-50.5c155.4-5.8,169,0,145.7,62.2c-9.7,25.3-44.7,31.1-174.8,31.1C7218.2-1230.3,7216.3-1230.3,7231.8-1273z"
       id="path3989"
       style="fill:#7fd1f5;fill-opacity:1" /><path
       d="M7622.3-1241.9c0-5.8,9.7-27.2,19.4-48.6c17.5-31.1,42.7-36.9,174.8-36.9c85.5,0,155.4,5.8,155.4,11.7c0,5.8-9.7,27.2-19.4,48.6c-17.5,31.1-42.7,36.9-174.8,36.9C7692.2-1230.3,7622.3-1236.1,7622.3-1241.9z"
       id="path3991"
       style="fill:#7fd1f5;fill-opacity:1" /><path
       d="M8034.1-1273c25.2-38.8,48.6-44.7,178.7-50.5c145.7-5.8,159.3,0,136,62.2c-9.7,25.3-44.7,31.1-176.8,31.1h-165.1L8034.1-1273z"
       id="path3993"
       style="fill:#7fd1f5;fill-opacity:1" /><path
       d="M1561.9-1442c-46.6-91.3-44.7-93.2,170.9-83.5l159.3,7.8l29.1,68c15.5,36.9,29.1,71.9,29.1,75.7c0,3.9-77.7,7.8-174.8,7.8h-174.8L1561.9-1442z"
       id="path3995"
       style="fill:#7fd1f5;fill-opacity:1" /><path
       d="M2028.1-1374c0-3.9-13.6-38.8-29.1-77.7l-29.1-69.9h182.6H2335l21.4,60.2c11.7,35,21.4,69.9,21.4,77.7c0,9.7-77.7,17.5-174.8,17.5C2107.7-1366.2,2028.1-1370.1,2028.1-1374z"
       id="path3997"
       style="fill:#7fd1f5;fill-opacity:1" /><path
       d="M2439.9-1438.1c-11.7-38.9-19.4-73.8-17.5-75.8c3.9-3.9,301.1-13.6,336-9.7c13.6,1.9,29.1,23.3,35,48.6c5.8,25.2,17.5,60.2,23.3,77.7c9.7,27.2-11.7,31.1-170.9,31.1h-184.5L2439.9-1438.1z"
       id="path3999"
       style="fill:#7fd1f5;fill-opacity:1" /><path
       d="M2896.4-1379.8c-5.8-9.7-15.5-44.7-23.3-77.7l-13.6-64.1l124.3-3.9c233.1-5.8,237-5.8,258.3,97.1l13.6,62.1h-176.8C2983.8-1366.2,2900.2-1372.1,2896.4-1379.8z"
       id="path4001"
       style="fill:#7fd1f5;fill-opacity:1" /><path
       d="M3314-1443.9l-19.4-77.7l101-3.9c110.7-3.9,250.6,3.9,260.3,13.6c3.9,3.9,13.6,38.8,23.3,75.8l15.5,69.9H3514h-180.6L3314-1443.9z"
       id="path4003"
       style="fill:#7fd1f5;fill-opacity:1" /><path
       d="M3768.5-1389.6c-38.8-122.4-35-132.1,40.8-136c71.9-1.9,285.5,5.8,289.4,11.7c1.9,0,7.8,35,15.5,75.8l13.6,71.9h-176.8C3826.8-1366.2,3772.4-1374,3768.5-1389.6z"
       id="path4005"
       style="fill:#7fd1f5;fill-opacity:1" /><path
       d="M4191.9-1434.2c-5.8-38.8-7.8-73.8-3.9-77.7c11.6-11.7,104.9-17.5,244.7-13.6l120.4,3.9v77.7v77.7h-174.8h-172.9L4191.9-1434.2z"
       id="path4007"
       style="fill:#7fd1f5;fill-opacity:1" /><path
       d="M4630.9-1442c0-42.7,9.7-77.7,25.2-83.5c11.7-3.9,95.2-3.9,184.5,0l159.3,7.8v75.7v75.8h-184.5h-184.5V-1442z"
       id="path4009"
       style="fill:#7fd1f5;fill-opacity:1" /><path
       d="M5077.7-1443.9v-77.7h174.8h174.8v77.7v77.7h-174.8h-174.8V-1443.9z"
       id="path4011"
       style="fill:#7fd1f5;fill-opacity:1" /><path
       d="M5505-1442v-77.7l165.1-5.8c198.1-7.8,203.9-5.8,203.9,52.5c0,101-11.7,106.8-196.2,106.8H5505V-1442z"
       id="path4013"
       style="fill:#7fd1f5;fill-opacity:1" /><path
       d="M5944-1438.1c7.8-40.8,13.6-75.8,15.5-77.7c7.8-9.7,339.9-13.6,349.7-3.9c5.8,5.8,5.8,42.7-2,81.6l-11.7,71.9H6113h-182.6L5944-1438.1z"
       id="path4015"
       style="fill:#7fd1f5;fill-opacity:1" /><path
       d="M6384.9-1436.2c5.8-38.8,13.6-73.8,17.5-75.8c7.8-7.8,225.3-15.5,299.1-13.6l62.2,3.9l-19.4,77.7l-19.4,77.7h-176.8h-174.8L6384.9-1436.2z"
       id="path4017"
       style="fill:#7fd1f5;fill-opacity:1" /><path
       d="M6816.2-1428.4c7.8-35,21.4-71.9,29.1-81.6c17.5-17.5,326.3-21.4,343.8-3.9c5.8,5.8,3.9,38.9-5.8,73.8l-19.4,64.1l-180.7,5.8l-180.6,5.8L6816.2-1428.4z"
       id="path4019"
       style="fill:#7fd1f5;fill-opacity:1" /><path
       d="M7257.1-1428.4c11.7-35,27.2-71.9,36.9-81.6c15.6-17.5,751.7-21.4,769.2-5.8c3.9,5.8-7.8,40.8-25.3,79.7l-35,69.9h-382.6h-384.6L7257.1-1428.4z"
       id="path4021"
       style="fill:#7fd1f5;fill-opacity:1" /><path
       d="M8088.4-1376c0-19.4,62.2-136,77.7-145.7c9.7-5.8,81.6-7.8,163.2-3.9l147.6,7.8l-38.8,75.7l-38.8,75.8h-155.4C8158.4-1366.2,8088.4-1370.1,8088.4-1376z"
       id="path4023"
       style="fill:#7fd1f5;fill-opacity:1" /><path
       d="M1511.4-1576c-21.4-13.6-85.5-126.3-85.5-149.6c0-5.8,137.9-9.7,306.9-9.7h305l31.1,75.8c19.4,42.7,27.2,81.6,21.4,87.4C2074.7-1554.7,1536.7-1558.6,1511.4-1576z"
       id="path4025"
       style="fill:#7fd1f5;fill-opacity:1" /><path
       d="M2175.7-1603.2c-15.5-25.3-33-64.1-40.8-87.4c-11.7-44.7-9.7-44.7,170.9-44.7h184.5l29.1,73.8c15.5,38.8,25.3,77.7,19.4,87.4c-3.9,7.8-81.6,13.6-170.9,13.6C2218.4-1560.5,2201-1564.4,2175.7-1603.2z"
       id="path4027"
       style="fill:#7fd1f5;fill-opacity:1" /><path
       d="M2636.1-1583.8c-11.6-13.6-29.1-54.4-40.8-87.4l-21.4-64.1h188.4h190.4l19.4,77.7c11.7,42.7,17.5,81.6,11.7,87.4C2960.5-1548.8,2653.6-1560.5,2636.1-1583.8z"
       id="path4029"
       style="fill:#7fd1f5;fill-opacity:1" /><path
       d="M3082.8-1583.8c-11.6-13.6-27.2-54.4-35-87.4l-13.6-64.1h186.5c176.8,0,186.5,1.9,196.2,44.7c27.2,126.3,35,120.4-147.6,126.3C3150.8-1560.5,3096.4-1566.3,3082.8-1583.8z"
       id="path4031"
       style="fill:#7fd1f5;fill-opacity:1" /><path
       d="M3527.6-1593.5c-9.7-19.4-23.3-58.3-31.1-87.4l-11.7-54.4h192.3h192.3l9.7,73.8c3.9,38.8,3.9,77.7,0,87.4c-3.9,7.8-81.6,13.6-170.9,13.6C3572.3-1560.5,3541.2-1566.3,3527.6-1593.5z"
       id="path4033"
       style="fill:#7fd1f5;fill-opacity:1" /><path
       d="M3970.5-1611c-44.7-118.5-36.9-124.3,163.2-124.3h180.7l11.6,71.9c7.8,38.9,7.8,77.7,1.9,87.4c-5.8,7.8-83.5,15.5-174.8,15.5C3993.8-1560.5,3988-1562.4,3970.5-1611z"
       id="path4035"
       style="fill:#7fd1f5;fill-opacity:1" /><path
       d="M4430.9-1574.1c-3.9-7.8-13.6-48.6-21.4-87.4l-13.6-73.8h196.2h196.2l-5.8,83.5l-5.8,81.6l-169,5.8C4516.3-1562.4,4436.7-1566.3,4430.9-1574.1z"
       id="path4037"
       style="fill:#7fd1f5;fill-opacity:1" /><path
       d="M4877.6-1572.1c-7.8-7.8-13.6-48.6-13.6-89.4v-73.8h186.5H5235l-5.8,83.5l-5.8,81.6l-165.1,5.8C4967-1562.4,4885.4-1564.4,4877.6-1572.1z"
       id="path4039"
       style="fill:#7fd1f5;fill-opacity:1" /><path
       d="M5324.4-1572.1c-7.8-7.8-13.6-48.6-13.6-89.4v-73.8h190.4h190.4l-9.7,83.5l-11.7,81.6l-165.1,5.8C5413.7-1562.4,5332.2-1564.4,5324.4-1572.1z"
       id="path4041"
       style="fill:#7fd1f5;fill-opacity:1" /><path
       d="M5767.3-1581.8c-7.8-11.7-7.8-50.5-2-87.4l13.6-66h186.5h184.5l-13.6,71.9c-7.8,40.8-17.5,79.6-21.4,87.4C6099.4-1552.7,5780.8-1558.6,5767.3-1581.8z"
       id="path4043"
       style="fill:#7fd1f5;fill-opacity:1" /><path
       d="M6215.9-1576c-5.8-9.7-5.8-48.6,2-87.4l11.6-71.9h190.4h190.4l-25.3,83.5l-23.3,81.6l-167.1,5.8C6301.4-1562.4,6221.8-1566.3,6215.9-1576z"
       id="path4045"
       style="fill:#7fd1f5;fill-opacity:1" /><path
       d="M6662.7-1576c-5.8-9.7-1.9-48.6,9.7-87.4l19.4-71.9h184.5H7059l-11.7,54.4c-29.1,116.5-35,120.4-211.7,120.4C6746.2-1560.5,6668.5-1568.3,6662.7-1576z"
       id="path4047"
       style="fill:#7fd1f5;fill-opacity:1" /><path
       d="M7109.5-1576c-5.8-9.7,0-48.6,11.7-87.4l21.4-71.9h190.4h190.4l-35,83.5l-35,81.6l-167,5.8C7194.9-1562.4,7115.3-1566.3,7109.5-1576z"
       id="path4049"
       style="fill:#7fd1f5;fill-opacity:1" /><path
       d="M7556.2-1578c-25.3-38.8,44.7-153.4,104.9-174.8c46.6-15.5,69.9-42.7,102.9-118.5l40.8-97.1h237h238.9l-38.8,93.2c-21.4,50.5-62.2,139.9-91.3,198.1l-52.5,106.8l-266.1,5.8C7684.4-1562.4,7562.1-1568.3,7556.2-1578z"
       id="path4051"
       style="fill:#7fd1f5;fill-opacity:1" /><path
       d="M8199.2-1572.1c-5.8-7.8,5.8-46.6,27.2-87.4l36.9-75.8h155.4c85.5,0,155.4,3.9,155.4,9.7c0,23.3-64.1,136-85.5,149.6C8463.3-1558.6,8216.6-1556.6,8199.2-1572.1z"
       id="path4053"
       style="fill:#7fd1f5;fill-opacity:1" /><path
       d="M1383.2-1826.6c-31.1-36.9-73.8-112.7-73.8-130.1c0-5.8,169-11.7,374.9-11.7h372.9l31.1,75.8c19.4,42.7,27.2,81.6,21.4,87.4c-5.8,5.8-165.1,11.7-353.5,11.7C1453.1-1793.6,1408.5-1797.5,1383.2-1826.6z"
       id="path4055"
       style="fill:#7fd1f5;fill-opacity:1" /><path
       d="M2214.6-1807.2c-13.6-13.6-69.9-137.9-69.9-153.4c0-3.9,87.4-7.8,192.3-7.8h192.3l21.4,60.2c38.8,112.7,36.9,114.6-149.6,114.6C2305.9-1793.6,2222.3-1799.4,2214.6-1807.2z"
       id="path4057"
       style="fill:#7fd1f5;fill-opacity:1" /><path
       d="M2653.6-1846c-9.7-31.1-25.3-69.9-33-87.4c-13.6-31.1,3.9-35,180.6-35h194.2l21.4,60.2c38.8,112.7,36.9,114.6-161.2,114.6C2673-1793.6,2673-1793.6,2653.6-1846z"
       id="path4059"
       style="fill:#7fd1f5;fill-opacity:1" /><path
       d="M3127.5-1816.9c-5.8-13.6-17.5-54.4-29.1-87.4l-19.4-64.1h192.3c104.9,0,196.2,5.8,200.1,15.5c3.9,7.8,13.6,46.6,21.4,87.4l13.6,71.9h-186.5C3187.7-1793.6,3131.4-1801.3,3127.5-1816.9z"
       id="path4061"
       style="fill:#7fd1f5;fill-opacity:1" /><path
       d="M3582-1844.1c-46.6-118.5-38.8-124.3,172.9-124.3h192.3l9.7,73.8c3.9,38.8,3.9,77.7,0,87.4c-3.9,7.8-87.4,13.6-182.6,13.6C3605.3-1793.6,3599.5-1795.5,3582-1844.1z"
       id="path4063"
       style="fill:#7fd1f5;fill-opacity:1" /><path
       d="M4048.2-1844.1c-46.6-118.5-38.8-124.3,174.8-124.3h194.2v87.4v87.4h-174.8C4071.5-1793.6,4065.7-1795.5,4048.2-1844.1z"
       id="path4065"
       style="fill:#7fd1f5;fill-opacity:1" /><path
       d="M4506.6-1853.8c-23.3-118.5-27.2-114.6,182.6-114.6h194.2v87.4v87.4h-182.6h-180.6L4506.6-1853.8z"
       id="path4067"
       style="fill:#7fd1f5;fill-opacity:1" /><path
       d="M4974.7-1805.2c-7.8-7.8-13.6-48.6-13.6-89.4v-73.8h196.2h194.2l-5.8,83.5l-5.8,81.6l-174.8,5.8C5068-1795.5,4982.5-1797.5,4974.7-1805.2z"
       id="path4069"
       style="fill:#7fd1f5;fill-opacity:1" /><path
       d="M5437-1813c-5.8-9.7-5.8-48.6,2-87.4l11.7-68h192.3h192.3l-11.7,64.1c-19.4,114.6-13.6,110.7-200,110.7C5528.3-1793.6,5442.9-1801.3,5437-1813z"
       id="path4071"
       style="fill:#7fd1f5;fill-opacity:1" /><path
       d="M5893.5-1820.8c0-13.6,5.8-54.4,11.7-87.4l13.6-60.2h192.3h192.3l-13.6,73.8c-7.8,38.8-17.5,77.7-21.4,87.4c-3.9,7.8-91.3,13.6-192.3,13.6C5934.3-1793.6,5893.5-1799.4,5893.5-1820.8z"
       id="path4073"
       style="fill:#7fd1f5;fill-opacity:1" /><path
       d="M6359.7-1820.8c0-13.6,5.8-54.4,11.7-87.4l13.6-60.2h190.4c106.8,0,192.3,5.8,192.3,15.5c0,7.8-9.7,46.6-21.4,87.4l-19.4,71.9h-182.6C6400.5-1793.6,6359.7-1799.4,6359.7-1820.8z"
       id="path4075"
       style="fill:#7fd1f5;fill-opacity:1" /><path
       d="M6825.9-1830.5c0-21.4,7.8-60.2,19.4-87.4c17.5-48.6,23.3-50.5,204-50.5c114.6,0,184.5,7.8,184.5,19.4c0,11.6-13.6,50.5-27.2,87.4l-29.1,68h-174.8C6841.4-1793.6,6825.9-1797.5,6825.9-1830.5z"
       id="path4077"
       style="fill:#7fd1f5;fill-opacity:1" /><path
       d="M7288.2-1805.2c-7.8-5.8-1.9-42.7,11.7-81.6l25.2-71.9l196.2-5.8l196.2-5.8l-35,83.5l-35,83.5l-172.9,5.8C7377.5-1795.5,7294-1797.5,7288.2-1805.2z"
       id="path4079"
       style="fill:#7fd1f5;fill-opacity:1" /><path
       d="M8302.1-1813c0-9.7,15.5-48.6,33-87.4l33-68h161.2c89.3,0,161.2,3.9,161.2,9.7s-17.5,46.6-38.8,87.4l-38.8,77.7h-155.4C8370.1-1793.6,8302.1-1801.3,8302.1-1813z"
       id="path4081"
       style="fill:#7fd1f5;fill-opacity:1" /><path
       d="M1222-2123.8l-48.6-97.1h279.7h279.7l31.1,77.7c17.5,42.7,31.1,87.4,31.1,97.1c0,11.7-102.9,19.4-262.2,19.4h-262.2L1222-2123.8z"
       id="path4083"
       style="fill:#7fd1f5;fill-opacity:1" /><path
       d="M1886.3-2050c-5.8-13.6-23.3-58.3-40.8-97.1l-31.1-73.8h202h202l31.1,91.3c17.5,50.5,31.1,93.2,31.1,97.1c0,3.9-87.4,5.8-192.3,5.8C1952.3-2026.7,1894.1-2034.4,1886.3-2050z"
       id="path4085"
       style="fill:#7fd1f5;fill-opacity:1" /><path
       d="M2368-2044.2c-5.8-11.6-23.3-54.4-38.9-97.1l-27.2-79.6h202h202l19.4,73.8c35,122.4,38.8,120.4-161.2,120.4C2463.2-2026.7,2375.8-2034.4,2368-2044.2z"
       id="path4087"
       style="fill:#7fd1f5;fill-opacity:1" /><path
       d="M2822.5-2108.3c-11.7-46.6-25.2-89.3-31.1-97.1c-3.9-9.7,83.5-15.5,194.2-15.5h204l21.4,85.5c11.7,48.6,21.4,91.3,21.4,97.1c0,5.8-87.4,11.7-194.2,11.7h-192.3L2822.5-2108.3z"
       id="path4089"
       style="fill:#7fd1f5;fill-opacity:1" /><path
       d="M3321.7-2042.2c-5.8-9.7-15.5-54.4-23.3-97.1l-13.6-81.6H3481c213.7,0,217.6,1.9,217.6,141.8v52.5H3516C3415-2026.7,3327.6-2034.4,3321.7-2042.2z"
       id="path4091"
       style="fill:#7fd1f5;fill-opacity:1" /><path
       d="M3787.9-2086.9c-27.2-137.9-31.1-134,180.6-134h192.3l11.7,60.2c27.2,137.9,31.1,134-180.6,134h-190.4L3787.9-2086.9z"
       id="path4093"
       style="fill:#7fd1f5;fill-opacity:1" /><path
       d="M4275.5-2040.3c-7.8-5.8-13.6-50.5-13.6-97.1v-83.5h192.3h190.4l11.6,81.6c5.8,44.7,5.8,89.3,1.9,97.1C4646.5-2022.8,4293-2020.8,4275.5-2040.3z"
       id="path4095"
       style="fill:#7fd1f5;fill-opacity:1" /><path
       d="M4747.5-2123.8v-97.1h194.2H5136v97.1v97.1h-194.2h-194.2V-2123.8z"
       id="path4097"
       style="fill:#7fd1f5;fill-opacity:1" /><path
       d="M5233.1-2123.8v-97.1h196.2h194.2l-5.8,93.2l-5.8,91.3l-188.4,5.8l-190.4,5.8V-2123.8z"
       id="path4099"
       style="fill:#7fd1f5;fill-opacity:1" /><path
       d="M5699.3-2063.6c0-19.4,5.8-64.1,11.7-97.1l13.6-60.2h190.4h192.3v54.4c0,137.9-5.8,139.9-215.6,139.9C5716.7-2026.7,5699.3-2030.6,5699.3-2063.6z"
       id="path4101"
       style="fill:#7fd1f5;fill-opacity:1" /><path
       d="M6184.9-2079.1c0-139.9,3.9-141.8,217.6-141.8h196.2l-13.6,81.6c-7.8,42.7-17.5,87.4-23.3,97.1c-5.8,7.8-93.3,15.5-194.2,15.5h-182.6V-2079.1z"
       id="path4103"
       style="fill:#7fd1f5;fill-opacity:1" /><path
       d="M6651.1-2038.3c0-5.8,9.7-48.6,21.4-97.1l21.4-85.5h192.3c213.7,0,215.6,1.9,170.9,134l-21.4,60.2h-192.3C6738.5-2026.7,6651.1-2032.5,6651.1-2038.3z"
       id="path4105"
       style="fill:#7fd1f5;fill-opacity:1" /><path
       d="M7136.7-2050c0-13.6,9.7-58.3,21.4-97.1l19.4-73.8h600.2c404,0,602.2,5.8,602.2,19.4c0,11.6-17.5,56.3-38.8,97.1l-38.9,77.7h-582.7C7266.8-2026.7,7136.7-2032.5,7136.7-2050z"
       id="path4107"
       style="fill:#7fd1f5;fill-opacity:1" /><path
       d="M8399.2-2034.4c0-3.9,17.5-46.6,38.8-97.1l40.8-89.3h174.8h172.9l-48.6,97.1l-48.6,97.1h-165.1C8473-2026.7,8399.2-2030.6,8399.2-2034.4z"
       id="path4109"
       style="fill:#7fd1f5;fill-opacity:1" /><path
       d="M1138.5-2302.5c-29.1-38.8-81.6-147.6-81.6-170.9c0-13.6,66-19.4,198.1-15.5l200.1,5.8l42.7,87.4c23.3,48.6,42.7,93.2,42.7,102.9C1542.5-2267.5,1159.8-2277.2,1138.5-2302.5z"
       id="path4111"
       style="fill:#7fd1f5;fill-opacity:1" /><path
       d="M1600.8-2360.8c-60.2-132.1-62.2-132.1,155.4-132.1h196.2l36.9,83.5c60.2,130.1,62.2,130.1-155.4,130.1h-196.2L1600.8-2360.8z"
       id="path4113"
       style="fill:#7fd1f5;fill-opacity:1" /><path
       d="M2098-2356.9c-54.4-136-54.4-136,163.2-136c213.7,0,209.8-1.9,248.6,141.8l19.4,71.9h-200.1h-200.1L2098-2356.9z"
       id="path4115"
       style="fill:#7fd1f5;fill-opacity:1" /><path
       d="M2601.1-2341.3c-58.3-143.7-60.2-141.8,161.2-147.6c221.4-5.8,211.7-11.7,246.7,147.6l13.6,62.2h-198.1h-196.2L2601.1-2341.3z"
       id="path4117"
       style="fill:#7fd1f5;fill-opacity:1" /><path
       d="M3106.1-2302.5c-27.2-81.6-42.7-169-33-178.7c5.8-5.8,642.9-11.7,1416-11.7h1404.4v46.6c0,25.2-5.8,73.8-11.7,106.8l-11.7,60.2H4491.1C3407.2-2279.2,3112-2285,3106.1-2302.5z"
       id="path4119"
       style="fill:#7fd1f5;fill-opacity:1" /><path
       d="M5971.2-2341.3c0-151.5,2-151.5,227.3-151.5h202l-13.6,93.2c-5.8,50.5-15.6,97.1-21.4,106.8c-3.9,7.8-95.2,13.6-202,13.6h-192.3V-2341.3z"
       id="path4121"
       style="fill:#7fd1f5;fill-opacity:1" /><path
       d="M6464.6-2351.1c27.2-149.6,13.6-141.8,237-141.8h205.9l-13.6,64.1c-35,155.4-27.2,149.6-244.7,149.6h-196.2L6464.6-2351.1z"
       id="path4123"
       style="fill:#7fd1f5;fill-opacity:1" /><path
       d="M6942.4-2285c0-3.9,13.6-52.5,29.1-106.8l31.1-101h202c112.7,0,203.9,1.9,203.9,5.8c0,3.9-13.6,52.5-29.1,106.8l-31.1,101h-202C7033.7-2279.2,6942.4-2281.1,6942.4-2285z"
       id="path4125"
       style="fill:#7fd1f5;fill-opacity:1" /><path
       d="M7459.1-2321.9c5.8-25.3,23.3-73.8,38.8-106.8l25.3-64.1h194.2c217.5,0,215.6-1.9,165.1,130.2l-33,83.5h-202C7445.5-2279.2,7445.5-2279.2,7459.1-2321.9z"
       id="path4127"
       style="fill:#7fd1f5;fill-opacity:1" /><path
       d="M7952.5-2283.1c0-3.9,17.5-48.6,36.9-102.9l36.9-97.1l207.8-5.8c163.2-3.9,205.9,0,198.1,19.4c-5.8,13.6-25.2,62.2-42.7,108.8l-33,81.6h-202C8043.8-2279.2,7952.5-2281.1,7952.5-2283.1z"
       id="path4129"
       style="fill:#7fd1f5;fill-opacity:1" /><path
       d="M8459.4-2292.8c0-7.8,19.4-54.4,42.7-102.9l42.7-87.4l200.1-5.8c223.4-5.8,225.3-3.9,153.5,122.4l-44.7,77.7l-198.1,5.8C8546.8-2281.1,8457.5-2285,8459.4-2292.8z"
       id="path4131"
       style="fill:#7fd1f5;fill-opacity:1" /></g></g>
</svg>
